<svg xmlns="http://www.w3.org/2000/svg" height="100" width="100" class="main-header__logo-image" fill="#A1A1A1" 
viewBox="0 0 145 145"
>
<path fill="#4285f4" d="M141.137 73.645a85.79 85.79 0 00-1.24-14.64h-67.9v27.73h38.89a33.33 33.33 0 01-14.38 21.88v18h23.21c13.59-12.53 21.42-31.06 21.42-52.97z"/>
<path fill="#34a853" d="M71.997 144.005c19.43 0 35.79-6.38 47.72-17.38l-23.21-18c-6.46 4.38-14.78 6.88-24.51 6.88-18.78 0-34.72-12.66-40.42-29.72H7.667v18.55a72 72 0 0064.33 39.67z"/>
<path fill="#fbbc04" d="M31.577 85.785a43.14 43.14 0 010-27.56v-18.55H7.667a72 72 0 000 64.66z"/>
<path fill="#ea4335" d="M71.997 28.505a39.09 39.09 0 0127.62 10.8l20.55-20.55A69.18 69.18 0 0071.997.005a72 72 0 00-64.33 39.67l23.91 18.55c5.7-17.06 21.64-29.72 40.42-29.72z"/>
</svg>